# Blender v2.69 (sub 0) OBJ File: ''
# www.blender.org
mtllib box2.mtl
o Cube
v 3.000000 3.000000 -1.000000
v 3.000000 -3.000000 -1.000000
v -3.000000 -3.000000 -1.000000
v -2.999999 3.000001 -1.000000
v 3.000001 2.999998 1.000000
v 2.999998 -3.000002 1.000000
v -3.000001 -2.999999 1.000000
v -3.000000 3.000000 1.000000
vn -0.000000 0.000000 -1.000000
vn 0.000000 0.000000 1.000000
vn 1.000000 0.000000 -0.000001
vn -0.000000 -1.000000 -0.000001
vn -1.000000 0.000000 -0.000000
vn 0.000000 1.000000 0.000001
vn 1.000000 -0.000001 0.000001
vn 0.000000 1.000000 0.000000
vn -0.000000 -1.000000 0.000000
g Cube_Cube_Material
usemtl Material
s off
f 1//1 2//1 3//1
f 5//2 8//2 6//2
f 1//3 5//3 2//3
f 2//4 6//4 3//4
f 3//5 7//5 8//5
f 5//6 1//6 8//6
f 4//1 1//1 3//1
f 5//7 6//7 2//7
f 1//8 4//8 8//8
f 8//2 7//2 6//2
f 4//5 3//5 8//5
f 6//9 7//9 3//9
